<?xml version="1.0" standalone="no"?>
<!DOCTYPE svg PUBLIC "-//W3C//DTD SVG 20010904//EN" "http://www.w3.org/TR/2001/REC-SVG-20010904/DTD/svg10.dtd">
<!-- Created using Krita: https://krita.org -->
<svg xmlns="http://www.w3.org/2000/svg" 
    xmlns:xlink="http://www.w3.org/1999/xlink"
    xmlns:krita="http://krita.org/namespaces/svg/krita"
    xmlns:sodipodi="http://sodipodi.sourceforge.net/DTD/sodipodi-0.dtd"
    width="199.44pt"
    height="392.4pt"
    viewBox="0 0 199.44 392.4">
<defs/>
<path id="shape0" transform="matrix(0.999999979959636 0 0 0.999999979959636 -58.698186000204 75.8579569985586)" fill="none" stroke="#ffffff" stroke-width="6.22812637177694" stroke-linecap="square" stroke-linejoin="miter" stroke-miterlimit="2" d="M27.9478 25.393C-51.9528 32.7199 58.9964 -38.9044 117.199 30.643C136.529 50.2737 149.68 103.014 165.199 119.144C307.257 266.791 229.405 382.888 191.449 418.772"/><path id="shape1" transform="matrix(0.999999979959636 0 0 0.999999979959636 3.91485604006113e-06 88.5008046232621)" fill="none" stroke="#ffffff" stroke-width="2.93862300640181" stroke-linecap="square" stroke-linejoin="miter" stroke-miterlimit="2" d="M0 0C74.5105 5.90354 76.8965 90.44 96.7509 110.251C174.101 187.433 209.511 263.478 117.001 406.129"/><path id="shape2" transform="matrix(0.999999979959636 0 0 0.999999979959636 3.91485604006113e-06 63.0005765443733)" fill="none" stroke="#ffffff" stroke-width="2.93862300640181" stroke-linecap="square" stroke-linejoin="miter" stroke-miterlimit="2" d="M0 0C113.096 17.0007 94.4861 103.603 126.751 138.001C201.541 217.735 247.93 313.735 62.2506 431.629"/>
</svg>
