<?xml version="1.0" standalone="no"?>
<!DOCTYPE svg PUBLIC "-//W3C//DTD SVG 20010904//EN" "http://www.w3.org/TR/2001/REC-SVG-20010904/DTD/svg10.dtd">
<!-- Created using Krita: https://krita.org -->
<svg xmlns="http://www.w3.org/2000/svg" 
    xmlns:xlink="http://www.w3.org/1999/xlink"
    xmlns:krita="http://krita.org/namespaces/svg/krita"
    xmlns:sodipodi="http://sodipodi.sourceforge.net/DTD/sodipodi-0.dtd"
    width="268.127pt"
    height="335.253pt"
    viewBox="0 0 268.127 335.253">
<defs/>
<path id="shape0" transform="translate(61.5443107059621, 18.3722221970526)" fill="none" stroke="#000000" stroke-width="3.34405517338517" stroke-linecap="square" stroke-linejoin="miter" stroke-miterlimit="2" d="M83.4832 4.56989C89.6192 8.45685 95.4347 16.571 96.8639 20.1825C102.231 33.7439 107.787 48.2269 111.742 58.253C121.805 83.7625 130.544 105.974 141.335 113.181C149.057 118.339 171.609 124.409 172.329 129.08C174.642 144.087 124.387 155.595 112.353 154.495C104.226 153.752 44.9723 155.365 22.6209 143.36C-19.1156 120.942 8.90559 12.9539 12.929 5.0544C15.794 -0.57073 72.5269 -0.277582 72.5194 0.286531C72.5125 0.800081 76.4629 0.122732 83.4832 4.56989Z"/><path id="shape1" transform="translate(108.620715622421, 171.720690463652)" fill="none" stroke="#000000" stroke-width="3.34405517338517" stroke-linecap="square" stroke-linejoin="miter" stroke-miterlimit="2" d="M9.18191 0C1.28211 94.3042 -1.52015 143.56 0.775123 147.767"/><path id="shape2" transform="translate(109.928200479778, 171.618447317306)" fill="none" stroke="#000000" stroke-width="3.34405517338517" stroke-linecap="square" stroke-linejoin="miter" stroke-miterlimit="2" d="M21.1324 0C6.87575 145.691 0 148.131 0 148.131"/><path id="shape3" transform="translate(61.8927086315264, 163.584079453784)" fill="none" stroke="#000000" stroke-width="3.34405517338517" stroke-linecap="square" stroke-linejoin="miter" stroke-miterlimit="2" d="M25.2869 0C7.25528 67.3167 -1.13282 103.945 0.12257 109.885"/><path id="shape4" transform="translate(63.1529057251977, 167.626512492786)" fill="none" stroke="#000000" stroke-width="3.34405517338517" stroke-linecap="square" stroke-linejoin="miter" stroke-miterlimit="2" d="M33.0467 0C14.2414 73.6755 3.22586 109.5 0 107.474"/><path id="shape5" transform="translate(164.517631246613, 174.613120153918)" fill="none" stroke="#000000" stroke-width="3.34405517338517" stroke-linecap="square" stroke-linejoin="miter" stroke-miterlimit="2" d="M0 0C6.52924 50.8992 10.4035 74.6947 11.6229 71.3864"/><path id="shape6" transform="translate(175.011639565653, 173.782174542271)" fill="none" stroke="#000000" stroke-width="3.34405517338517" stroke-linecap="square" stroke-linejoin="miter" stroke-miterlimit="2" d="M0 0C4.17901 42.6444 4.55547 66.739 1.12938 72.2836"/><path id="shape7" transform="translate(194.722387100792, 173.142726392799)" fill="none" stroke="#000000" stroke-width="3.34405517338517" stroke-linecap="square" stroke-linejoin="miter" stroke-miterlimit="2" d="M0 0C30.4373 103.936 44.7111 143.867 42.8215 119.794"/><path id="shape8" transform="translate(205.81000964595, 168.001515876439)" fill="none" stroke="#000000" stroke-width="3.34405517338517" stroke-linecap="square" stroke-linejoin="miter" stroke-miterlimit="2" d="M0 0C15.0691 48.2256 25.6457 89.6939 31.7298 124.405"/><path id="shape9" transform="translate(122.029723651077, 209.040847704604)" fill="none" stroke="#000000" stroke-width="3.34405517338517" stroke-linecap="square" stroke-linejoin="miter" stroke-miterlimit="2" d="M45.8053 0L0 48.4031"/><path id="shape10" transform="translate(82.7500272837803, 221.370479952877)" fill="none" stroke="#000000" stroke-width="3.34405517338517" stroke-linecap="square" stroke-linejoin="miter" stroke-miterlimit="2" d="M0 0L30.4206 5.76564"/><path id="shape11" transform="translate(125.187769174598, 229.29353237133)" fill="none" stroke="#000000" stroke-width="3.34405517338517" stroke-linecap="square" stroke-linejoin="miter" stroke-miterlimit="2" d="M0 0L88.3602 12.3844"/><path id="shape12" transform="translate(71.6834534613868, 61.3967420987916)" fill="none" stroke="#000000" stroke-width="3.34405517338517" stroke-linecap="square" stroke-linejoin="miter" stroke-miterlimit="2" d="M0 86.5562C33.5991 100.637 80.6269 40.7705 82.2797 17.0814C83.9742 -7.20635 64.8241 3.25295 52.9713 13.6762C46.0994 20.7895 48.3359 30.665 51.8972 32.4352C52.5898 33.9029 60.8887 28.9621 55.0331 16.3717C55.4319 15.6813 46.5964 5.75747 40.3343 1.77324C30.8203 -4.27988 23.194 6.4585 22.4663 14.5402C22.7996 33.0411 33.3709 55.4739 46.9501 66.1266C47.62 66.6521 64.0445 89.9982 119.459 61.2313"/>
</svg>
